<?xml version="1.0" encoding="utf-8"?>
<!-- Generator: Adobe Illustrator 18.1.0, SVG Export Plug-In . SVG Version: 6.00 Build 0)  -->
<svg version="1.1" id="Layer_1" xmlns="http://www.w3.org/2000/svg" xmlns:xlink="http://www.w3.org/1999/xlink" x="0px" y="0px"
	 width="612px" height="206px" viewBox="0 294 612 206" enable-background="new 0 294 612 206" xml:space="preserve">
<g>
	<g>
		<g>
			<path fill="#807F83" d="M8,484H1.2l16.4-50.4h7.6L41.4,484h-8.1l-3-10H11.1L8,484z M22.9,449.6l-1.9-10l-2.3,10l-6,19.2h15.9
				L22.9,449.6z"/>
			<path fill="#807F83" d="M58.6,485c-2.8,0-5.2-0.3-7.1-0.9c-1.9-0.6-3.5-1.1-4.7-1.7l0.9-5.3c1.3,0.6,2.9,1.1,4.6,1.6
				c1.7,0.5,3.7,0.8,5.6,0.8c2.5,0,4.4-0.4,5.7-1.4c1.3-0.9,2-2.6,2-4.9c0-1.1-0.1-2.1-0.4-2.7c-0.3-0.7-0.7-1.3-1.4-1.8
				c-0.7-0.5-1.6-0.9-2.8-1.3c-1.2-0.4-2.7-0.8-4.6-1.3c-1.4-0.4-2.8-0.9-4-1.4c-1.2-0.5-2.2-1.3-3.1-2.2c-0.9-0.9-1.6-2-2.1-3.3
				c-0.5-1.3-0.7-2.9-0.7-4.8c0-4.1,1.2-7.1,3.6-9c2.4-1.9,5.7-2.9,9.7-2.9c2.5,0,4.7,0.2,6.5,0.8c1.9,0.5,3.4,1,4.6,1.6l-1.1,5.2
				c-1.5-0.5-3-0.9-4.4-1.3c-1.4-0.3-3.1-0.5-5.1-0.5c-2.4,0-4.3,0.4-5.4,1.2c-1.2,0.8-1.8,2.3-1.8,4.6c0,1,0.2,2,0.5,2.5
				c0.3,0.7,0.8,1.2,1.5,1.6c0.7,0.5,1.6,0.8,2.6,1.1c1.1,0.4,2.4,0.7,3.9,1.1c1.8,0.5,3.3,1,4.7,1.6c1.3,0.7,2.4,1.4,3.4,2.4
				c0.9,0.9,1.6,2.1,2.1,3.5c0.5,1.3,0.8,2.9,0.8,4.9c0,3.5-1.1,6.4-3.5,8.7C66.8,483.9,63.3,485,58.6,485L58.6,485z"/>
			<path fill="#807F83" d="M90.4,485c-2.8,0-5.2-0.3-7.1-0.9c-2-0.6-3.5-1.1-4.7-1.7l0.9-5.3c1.4,0.6,2.9,1.1,4.6,1.6
				c1.7,0.5,3.7,0.8,5.6,0.8c2.5,0,4.4-0.4,5.7-1.4c1.3-0.9,2-2.6,2-4.9c0-1.1-0.1-2.1-0.4-2.7c-0.3-0.7-0.7-1.3-1.4-1.8
				c-0.7-0.5-1.6-0.9-2.8-1.3c-1.2-0.4-2.7-0.8-4.6-1.3c-1.4-0.4-2.8-0.9-4-1.4c-1.2-0.5-2.2-1.3-3.1-2.2c-0.9-0.9-1.6-2-2.1-3.3
				c-0.5-1.3-0.7-2.9-0.7-4.8c0-4.1,1.2-7.1,3.6-9c2.4-1.9,5.7-2.9,9.7-2.9c2.5,0,4.7,0.2,6.5,0.8c1.8,0.5,3.4,1,4.6,1.6l-1.1,5.2
				c-1.5-0.5-3-0.9-4.4-1.3c-1.4-0.3-3.1-0.5-5.1-0.5c-2.4,0-4.3,0.4-5.5,1.2c-1.2,0.8-1.8,2.3-1.8,4.6c0,1,0.2,2,0.5,2.5
				c0.3,0.7,0.8,1.2,1.5,1.6c0.7,0.5,1.6,0.8,2.6,1.1c1.1,0.4,2.4,0.7,3.9,1.1c1.8,0.5,3.3,1,4.7,1.6c1.3,0.7,2.4,1.4,3.4,2.4
				c0.9,0.9,1.6,2.1,2.1,3.5c0.5,1.3,0.8,2.9,0.8,4.9c0,3.5-1.2,6.4-3.4,8.7C98.5,483.9,95.1,485,90.4,485L90.4,485z"/>
			<path fill="#807F83" d="M118.5,472.2c0.4,1.7,0.9,3.1,1.8,4.1c0.8,1,1.8,1.8,3.1,2.3c1.2,0.5,2.7,0.7,4.4,0.7
				c1.9,0,3.7-0.2,5.4-0.8c1.7-0.5,3.4-1.1,5.2-1.8l1.2,5.3c-1.2,0.7-2.9,1.4-5.1,2.1c-2.2,0.7-4.6,1.1-7.2,1.1
				c-5.6,0-9.8-1.8-12.7-5.3c-2.8-3.6-4.3-8.9-4.3-16c0-7.2,1.5-12.6,4.4-16c3-3.4,6.9-5.1,11.7-5.1c5.1,0,8.8,1.7,11.1,5.1
				c2.3,3.4,3.5,8,3.5,13.8v4.4h-23.3C117.9,468.4,118.1,470.6,118.5,472.2L118.5,472.2L118.5,472.2z M134.2,460.9v-1.2
				c0-4.3-0.6-7.4-1.9-9.1c-1.2-1.8-3.2-2.6-5.7-2.6c-1.3,0-2.5,0.2-3.5,0.6c-1.1,0.4-1.9,1.1-2.7,2.1c-0.7,1-1.3,2.3-1.7,4
				c-0.4,1.7-0.7,3.8-0.8,6.4L134.2,460.9L134.2,460.9z"/>
			<path fill="#807F83" d="M160,484.9c-3.1,0-5.4-0.8-6.8-2.6c-1.4-1.7-2.1-4.3-2.1-7.9v-25.7h-4.8v-5.2h5.3l3.4-10.9h3.3v10.9h8.9
				v5.2h-8.9V476c0,1.3,0.3,2.3,0.8,2.7c0.5,0.5,1.5,0.8,2.9,0.7h5.8l0.4,3.8c-1,0.4-2.2,0.8-3.6,1.1
				C163.3,484.7,161.7,484.8,160,484.9L160,484.9L160,484.9z"/>
			<path fill="#807F83" d="M194.6,433.6h10.3l9.3,33.4l2.2,13.9l2.2-13.9l9.7-33.4h10.6V484h-7.6v-25.1l1.4-22.3l-3.6,16.2L220,484
				h-8.1l-8.7-30.7l-3.3-16.6l1.3,22.3v25h-6.6V433.6L194.6,433.6z"/>
			<path fill="#807F83" d="M270,455.8c0-1-0.1-2-0.3-2.9c-0.2-0.9-0.6-1.6-1.1-2.2c-0.5-0.6-1.2-1.1-2-1.5c-0.8-0.4-1.9-0.5-3.2-0.5
				c-1.9,0-3.8,0.3-5.8,0.8c-2,0.5-4.1,1.1-6.3,1.9l-1.1-5.5c1.8-0.8,3.8-1.5,6.1-2.2c2.2-0.7,4.8-1,7.6-1c4.7,0,8,1.2,10.1,3.7
				c2.1,2.4,3.1,6.5,3.1,12v19.1c0,1,0.2,1.8,0.6,2.2c0.4,0.4,1,0.6,1.9,0.5h1.6l0.2,3.5c-0.4,0.3-1,0.6-1.8,0.9
				c-0.8,0.3-1.7,0.4-2.8,0.4c-0.6,0-1.3,0-1.9-0.1c-0.6-0.1-1.2-0.2-1.8-0.5l-2.9-4.5l-3.4,3.9c-0.8,0.4-1.7,0.7-2.9,0.9
				c-1.2,0.2-2.4,0.4-3.9,0.4c-1.5,0-3-0.2-4.4-0.6c-1.4-0.4-2.7-1.1-3.7-2c-1.1-0.9-1.9-2.1-2.5-3.6c-0.6-1.5-0.9-3.3-0.9-5.5
				c0-2.1,0.3-3.8,0.9-5.3c0.6-1.5,1.4-2.7,2.6-3.7c1.2-1,2.7-1.7,4.6-2.3c1.9-0.6,4.1-1,6.7-1.3l6.7-0.8L270,455.8L270,455.8
				L270,455.8z M270,464.4l-6.2,0.8c-2.9,0.3-5.1,1-6.4,2.1c-1.3,1.1-1.9,2.9-1.9,5.6v0.6c0,2.3,0.6,3.9,1.7,5
				c1.1,1,2.9,1.6,5.2,1.6c2,0,3.5-0.3,4.7-1c1.2-0.7,2.2-1.5,2.9-2.3L270,464.4L270,464.4L270,464.4z"/>
			<path fill="#807F83" d="M300,444.2c0.9-0.4,1.9-0.8,3.1-1.1c1.2-0.3,2.6-0.5,4.3-0.5c3.4,0,6.1,1,8.1,3c1.9,2.1,2.9,5.3,2.9,9.8
				V484h-7.2v-29.4c0-2.3-0.6-3.9-1.6-4.8c-1.1-0.9-2.5-1.3-4.3-1.3c-1.8,0-3.4,0.3-4.6,0.8c-1.3,0.5-2.7,1.3-4.2,2.2V484h-7.2
				v-40.6h4.4l2.6,5.2L300,444.2z"/>
			<path fill="#807F83" d="M348.4,455.8c0-1-0.1-2-0.3-2.9c-0.2-0.9-0.6-1.6-1-2.2c-0.5-0.6-1.2-1.1-2-1.5c-0.8-0.4-1.9-0.5-3.2-0.5
				c-1.9,0-3.8,0.3-5.7,0.8c-2,0.5-4.1,1.1-6.3,1.9l-1.1-5.5c1.8-0.8,3.8-1.5,6.1-2.2c2.2-0.7,4.7-1,7.6-1c4.7,0,8.1,1.2,10.1,3.7
				c2.1,2.4,3.1,6.5,3.1,12v19.1c0,1,0.2,1.8,0.6,2.2c0.4,0.4,1,0.6,1.9,0.5h1.6l0.2,3.5c-0.4,0.3-1,0.6-1.8,0.9
				c-0.7,0.3-1.7,0.4-2.8,0.4c-0.6,0-1.3,0-1.9-0.1c-0.6-0.1-1.2-0.2-1.8-0.5l-2.9-4.5l-3.4,3.9c-0.8,0.4-1.7,0.7-2.9,0.9
				c-1.1,0.2-2.4,0.4-3.9,0.4c-1.5,0-3-0.2-4.5-0.6c-1.4-0.4-2.7-1.1-3.7-2c-1.1-0.9-1.9-2.1-2.5-3.6c-0.6-1.5-0.9-3.3-0.9-5.5
				c0-2.1,0.3-3.8,0.9-5.3c0.6-1.5,1.4-2.7,2.6-3.7c1.2-1,2.7-1.7,4.6-2.3c1.9-0.6,4.1-1,6.7-1.3l6.7-0.8L348.4,455.8L348.4,455.8
				L348.4,455.8z M348.4,464.4l-6.2,0.8c-2.9,0.3-5.1,1-6.4,2.1c-1.3,1.1-1.9,2.9-1.9,5.6v0.6c0,2.3,0.6,3.9,1.7,5
				c1.1,1,2.8,1.6,5.2,1.6c2,0,3.5-0.3,4.7-1c1.2-0.7,2.1-1.5,2.9-2.3L348.4,464.4L348.4,464.4L348.4,464.4z"/>
			<path fill="#807F83" d="M399,441.8v6.7h-9.2l5.1,3.2c0.1,0.6,0.3,1.1,0.5,1.7c0.1,0.6,0.2,1.3,0.2,2.2c0,2.5-0.4,4.6-1.3,6.3
				c-0.8,1.7-1.9,3.1-3.3,4.1c-1.4,1.1-2.9,1.8-4.7,2.2c-1.8,0.4-3.7,0.7-5.6,0.7c-2.7,0-5-0.4-6.8-1.2c-0.6,0.4-1.1,0.9-1.4,1.5
				c-0.4,0.6-0.6,1.3-0.6,2.1c0,2.6,1.7,3.9,5.1,3.9h8.9c4,0,7.1,0.8,9.2,2.5c2.1,1.7,3.1,4.1,3.1,7.6c0,2.2-0.5,4.1-1.4,5.7
				c-0.9,1.6-2.2,2.9-3.8,4c-1.6,1-3.5,1.8-5.7,2.3c-2.2,0.5-4.6,0.7-7.1,0.8c-5.1,0-8.9-0.9-11.5-2.6c-2.6-1.8-3.9-4.2-3.9-7.3
				c0-1.5,0.2-2.7,0.7-3.5c0.5-0.9,0.9-1.5,1.3-2l4.5-2.2c-1.4-0.4-2.6-1.2-3.6-2.2c-1-1.1-1.5-2.6-1.5-4.6c0-1.3,0.2-2.4,0.6-3.2
				c0.4-0.8,0.7-1.4,1.1-1.9l4.4-2.3l-4.7-2.9c-0.5-1-1-2.1-1.3-3.3c-0.3-1.2-0.5-2.6-0.5-4.1c0-2.5,0.4-4.5,1.3-6.2
				c0.9-1.7,2-3,3.5-4.1c1.4-1,3.1-1.8,4.9-2.2c1.8-0.4,3.5-0.6,5.3-0.6c3.5,0,6.6,0.8,9.1,2.4L399,441.8z M371.6,483.5
				c-0.5,1-0.8,2.1-0.8,3.5c0,2,0.8,3.4,2.3,4.3c1.5,0.9,3.9,1.4,7,1.4c3.8,0,6.6-0.7,8.5-2c1.9-1.3,2.8-2.9,2.8-4.7v-0.5
				c0-1.3-0.4-2.4-1.2-3.2c-0.8-0.9-2.3-1.3-4.6-1.3h-11.8C372.9,481.7,372.2,482.6,371.6,483.5L371.6,483.5L371.6,483.5z
				 M380.6,464.1c2.6,0,4.6-0.6,5.8-1.8c1.2-1.2,1.8-3.2,1.8-5.9v-1c0-2.5-0.6-4.3-1.8-5.5c-1.3-1.2-3.2-1.9-5.8-1.9
				c-2.7,0-4.7,0.6-6,1.9c-1.2,1.2-1.9,3.1-1.9,5.5v1c0,2.8,0.7,4.8,1.9,6C375.9,463.4,377.9,464.1,380.6,464.1L380.6,464.1
				L380.6,464.1z"/>
			<path fill="#807F83" d="M411.5,472.2c0.4,1.7,0.9,3.1,1.8,4.1c0.8,1,1.8,1.8,3.1,2.3c1.3,0.5,2.7,0.7,4.4,0.7
				c1.9,0,3.7-0.2,5.5-0.8c1.7-0.5,3.4-1.1,5.2-1.8l1.2,5.3c-1.2,0.7-2.9,1.4-5.1,2.1c-2.2,0.7-4.6,1.1-7.2,1.1
				c-5.6,0-9.8-1.8-12.7-5.3c-2.9-3.6-4.3-8.9-4.3-16c0-7.2,1.5-12.6,4.4-16c2.9-3.4,6.9-5.1,11.7-5.1c5.1,0,8.7,1.7,11.1,5.1
				c2.3,3.4,3.5,8,3.5,13.8v4.4h-23.3C410.9,468.4,411.1,470.6,411.5,472.2L411.5,472.2L411.5,472.2z M427.2,460.9v-1.2
				c0-4.3-0.6-7.4-1.9-9.1c-1.2-1.8-3.1-2.6-5.7-2.6c-1.3,0-2.5,0.2-3.5,0.6c-1.1,0.4-1.9,1.1-2.7,2.1c-0.7,1-1.3,2.3-1.7,4
				c-0.5,1.7-0.7,3.8-0.8,6.4L427.2,460.9L427.2,460.9L427.2,460.9z"/>
			<path fill="#807F83" d="M475.2,444.2c0.8-0.4,1.9-0.8,3-1.1c1.2-0.3,2.6-0.5,4.1-0.5c3.5,0,6.1,1,8,3c1.9,2.1,2.8,5.3,2.8,9.8
				V484h-7.2v-29.4c0-2.3-0.5-3.9-1.5-4.8c-1-0.9-2.4-1.3-4.2-1.3c-1.8,0-3.3,0.3-4.5,0.8c-1.2,0.6-2.5,1.3-3.8,2.2V484h-7.2v-29.4
				c0-2.3-0.5-3.9-1.6-4.8c-1.1-0.9-2.4-1.3-4.2-1.3c-1.7,0-3.1,0.3-4.4,0.8c-1.3,0.5-2.6,1.2-3.9,2.1V484h-7.2v-40.6h4.4l2.6,5
				l3.7-4.2c0.8-0.4,1.8-0.8,3-1.1c1.2-0.3,2.6-0.5,4.1-0.5c1.5,0,2.8,0.1,3.9,0.4c1.2,0.3,2.2,0.7,3.1,1.2l2.9,4.5L475.2,444.2z"/>
			<path fill="#807F83" d="M509.9,472.2c0.4,1.7,1,3.1,1.8,4.1c0.8,1,1.8,1.8,3.1,2.3c1.3,0.5,2.7,0.7,4.4,0.7
				c1.9,0,3.7-0.2,5.4-0.8c1.7-0.5,3.5-1.1,5.2-1.8l1.2,5.3c-1.2,0.7-2.9,1.4-5.1,2.1c-2.2,0.7-4.6,1.1-7.2,1.1
				c-5.6,0-9.8-1.8-12.7-5.3c-2.8-3.6-4.3-8.9-4.3-16c0-7.2,1.5-12.6,4.4-16c2.9-3.4,6.9-5.1,11.7-5.1c5.1,0,8.7,1.7,11.1,5.1
				c2.3,3.4,3.5,8,3.5,13.8v4.4h-23.3C509.3,468.4,509.5,470.6,509.9,472.2L509.9,472.2L509.9,472.2z M525.6,460.9v-1.2
				c0-4.3-0.6-7.4-1.9-9.1c-1.2-1.8-3.1-2.6-5.7-2.6c-1.3,0-2.5,0.2-3.5,0.6c-1.1,0.4-2,1.1-2.7,2.1c-0.7,1-1.3,2.3-1.8,4
				c-0.4,1.7-0.7,3.8-0.8,6.4L525.6,460.9L525.6,460.9L525.6,460.9z"/>
			<path fill="#807F83" d="M552.6,444.2c0.9-0.4,1.9-0.8,3.1-1.1c1.2-0.3,2.6-0.5,4.2-0.5c3.4,0,6.1,1,8.1,3
				c1.9,2.1,2.9,5.3,2.9,9.8V484h-7.2v-29.4c0-2.3-0.6-3.9-1.6-4.8c-1.1-0.9-2.5-1.3-4.3-1.3c-1.8,0-3.4,0.3-4.7,0.8
				c-1.3,0.5-2.7,1.3-4.2,2.2V484h-7.2v-40.6h4.4l2.6,5.2L552.6,444.2z"/>
			<path fill="#807F83" d="M591.4,484.9c-3.1,0-5.4-0.8-6.8-2.6c-1.4-1.7-2.1-4.3-2.1-7.9v-25.7h-4.8v-5.2h5.3l3.4-10.9h3.3v10.9
				h8.9v5.2h-8.9V476c0,1.3,0.3,2.3,0.8,2.7c0.5,0.5,1.5,0.8,2.9,0.7h5.8l0.4,3.8c-1,0.4-2.3,0.8-3.6,1.1
				C594.7,484.7,593.1,484.8,591.4,484.9L591.4,484.9L591.4,484.9z"/>
		</g>
	</g>
	<g>
		<path fill="#807F83" d="M476.5,413.5h130.1c1.6,0,2.8-1.3,2.8-2.8c0-1.6-1.3-2.8-2.8-2.8H476.5c-1.6,0-2.8,1.3-2.8,2.8
			C473.7,412.2,474.9,413.4,476.5,413.5"/>
		<path fill="#807F83" d="M0.3,413.5h380.8c1.6,0,2.8-1.3,2.8-2.8c0-1.6-1.3-2.8-2.8-2.8H0.3c-1.6,0-2.8,1.3-2.8,2.8
			C-2.5,412.2-1.2,413.4,0.3,413.5"/>
	</g>
	<g>
		<path fill="#54301A" d="M59.9,296H23.7v3.1h11.5v60.1c0,18.1-5,23.1-16.2,23.1c-7,0-8.2-5.3-8.2-8.1c0-6.6-0.4-10.6-6.4-10.6
			c-6,0-6.7,6.1-6.7,7.9c0,8.3,6.4,14.6,22.8,14.6c19.6,0,27.3-6.6,27.3-28.6v-58.4l11.9,0L59.9,296L59.9,296z"/>
		<path fill="#54301A" d="M62.3,372.3c-2,0-3.7,0.6-5,2c-1.4,1.4-2.1,3-2.1,5.1c0,2,0.7,3.7,2.1,4.9c1.4,1.4,3.1,2.1,5.1,2
			c2,0,3.7-0.7,5.1-2c1.4-1.3,2.1-2.9,2.1-4.9c0-2-0.7-3.7-2.1-5C66.1,372.9,64.4,372.3,62.3,372.3"/>
		<path fill="#54301A" d="M139.9,372.3c-2,0-3.7,0.6-5,2c-1.4,1.4-2.1,3-2.1,5.1c0,2,0.7,3.7,2.1,4.9c1.5,1.4,3.1,2.1,5.1,2
			c2,0,3.7-0.7,5.1-2c1.4-1.3,2.1-2.9,2.1-4.9c0-2-0.7-3.7-2.1-5C143.7,372.9,142,372.3,139.9,372.3"/>
		<path fill="#54301A" d="M117.4,296L82,296l0,3.1h10.4v68.5c0,5.4-0.3,5.7-0.9,7.2c-0.7,1.7-2.1,3.1-4.3,4c-1.6,0.7-4,1-7.3,1.1v4
			h38.2v-4c-3.2-0.1-5.7-0.4-7.3-1c-2.3-0.9-3.8-2.2-4.5-4c-0.6-1.5-1-2.9-1-5.6v-22.3l9.5,0c27.4,0,35.1-10.8,35.1-25.6
			C149.9,306.5,145.2,296.1,117.4,296 M112.6,343.7h-7.2v-44.1l6.6-0.1c21.2,0,25.7,8.7,25.7,22.8
			C137.7,336.4,129.4,343.7,112.6,343.7"/>
		<path fill="#54301A" d="M259.1,374.7c-0.5-1.6-0.7-3.5-0.7-6v-69.5l9.2,0V296h-22.4c-0.3,0.8-27,67.2-27,67.2
			c-0.1,0.2-0.4,0.4-0.6,0.4c-0.3,0-0.5-0.1-0.6-0.4c0,0-28.4-66.4-28.7-67.2l-24.9,0v3.1h10.3V366c0,0-0.2,6.2-0.2,6.2
			c-0.2,1.6-0.7,3.1-1.5,4.3c-0.8,1.3-2.2,2.2-4,2.8c-1.2,0.4-2.9,0.7-5.1,0.7v4H188v-4c-2.1-0.1-3-0.3-4.3-0.7
			c-1.8-0.6-3.2-1.5-4.1-2.8c-0.8-1.2-1.3-2.6-1.5-4.3c0,0-0.3-6.2-0.3-6.2v-57.6h1.5c0,0,32,74.8,32.4,75.6h2.7l30.3-74.8h0.8v59.5
			c0,2.6-0.3,4.6-0.8,6.2c-0.6,1.8-1.9,3.2-3.8,4.1c-1.4,0.6-3.5,1-6.3,1.1v4h34.6v-4c-2.8-0.1-4.9-0.5-6.4-1.2
			C260.9,377.9,259.6,376.5,259.1,374.7"/>
		<path fill="#54301A" d="M305.6,319.6c-18.5,0-30,12.2-30,33.6c0,31.3,24.3,33.4,29.6,33.4c10.4,0,30.2-6.5,30.2-34
			C335.3,331.2,322.7,319.6,305.6,319.6 M305.3,382.7c-13.9,0-16-6.9-16-29.2c0-17.2,1.1-30.1,16-30.1c16.1,0,16.3,13.3,16.3,28.9
			C321.6,374.9,317.8,382.7,305.3,382.7"/>
		<path fill="#54301A" d="M383.6,320.5c-11,0-14.9,6.5-17.9,13.2c0,0-0.8-0.1-0.9,0c-0.1,0-2.2-12.6-2.2-12.6h-20.9v3.3h11.5
			c0,0,0,9.8,0,13.4v29.9c0,4.3-0.2,7.7-1.3,9.5c-1.3,2.1-3.9,2.9-8.3,2.9h-1.9v4h35.8v-4h-1.9c-4.7,0-7.1-1-8.4-3.1
			c-1.1-1.8-1.6-4.8-1.6-9.3v-22.4c0-7.6,6.1-16.3,13-16.3c7.2,0,7.4,10.3,15.1,6.6C399.2,333,397.9,320.5,383.6,320.5"/>
		<path fill="#54301A" d="M526.3,377.6c-3.8,0-5-2.1-5.3-5.7c0,0-0.2-8-0.2-8.1v-26.3c0-5.7-0.9-9.5-4.3-12.9
			c-3.3-3.4-9.7-5.1-18.9-5.1c-8.9,0-15.4,1.6-19.6,4.9c-4.1,3.1-5.7,6-5.7,10.1c0,1.9,0.5,3.3,1.6,4.2c1.1,0.9,2.3,1.4,3.9,1.4
			c3.6,0,5.6-1.8,6.3-6.5c0.5-3.5,1.3-5.5,3-7.3c1.8-1.9,4.7-2.9,8.5-2.9c4.5,0,7.7,1.2,9.5,3.6c1.6,2.3,2.5,5.4,2.5,9.2v10.5
			c-11.5,1-38.6,3.2-37.4,23.9c0.4,8.1,7.5,15.1,16.7,15.2c10.2,0,16.6-5.8,21-10.4c0.7,4.4,4.8,9.7,12.2,9.7
			c8.3,0,13.3-4.1,13.9-14.3h-2.1C531.3,375.2,528.5,377.5,526.3,377.6 M507.5,371c0,0.2,0,0.4-0.2,0.5l-0.3,0.3
			c-6.1,5.6-10.8,7.6-14.3,7.6c-8.8,0-10.1-7.3-10.1-11c0-11.7,16-17.6,24.8-17.6L507.5,371L507.5,371z"/>
		<path fill="#54301A" d="M599.5,377.2c1.5,2,3.8,2.6,7.6,2.9v4h-29.8v-3.9c2.2-0.2,3.9-0.6,5-1.4c1.5-1,1.9-2.5,2.3-4.4
			c0.3-1.6,0.3-4.1,0.3-7.5v-20.6c0-5-0.3-11.3-2-14.7c-1.5-3-4-4.5-8.7-4.5c-5.3,0-9.9,2.5-12.5,7c-2.4,4.2-2.3,10.9-2.3,17.8v16.6
			c0,4.2,0.6,7.2,1.8,8.9c1.1,1.6,3.2,2.4,6.3,2.7v4h-31v-4c2.4-0.1,4.2-0.4,5.4-0.9c1.8-0.8,3.1-2.1,3.6-4c0.5-1.6,0.8-4,0.8-7.4
			v-43.4l-9.8,0v-3.3l19.5,0l2.2,11.4l1,0c2.5-4.9,8-12.1,20.5-12.1c3.5,0,6.7,0.7,9.5,2.1c2.7,1.4,4.9,3.6,6.5,6.4
			c1.6,2.9,2.1,6.4,2.1,10.5c0,0,0,25.3,0,28.5C597.6,371,598,375.2,599.5,377.2L599.5,377.2z"/>
		<path fill="#54301A" d="M459.6,317c-1.8,0.6-3.1,2.2-3.7,5c-0.5,2.6-1.5,4-2.8,4.4c-1.3,0.4-3.5,0.4-4.5-0.3
			c-3.2-3-9.4-6.6-20.2-6.6c-17.4,0-25.1,12.4-25.1,23.8c0,13.3,5.1,19.7,16.4,22.1c0.7,0.1,0.7,0.9,0.1,1c-9.6,1.9-18,4.7-18,13.8
			c0,5.5,3.1,8.5,7.1,10.1c4.5,1.8,10.7,2.7,18.5,2.9c6.8,0.1,11.7,0.3,14.8,0.7c3.4,0.4,6.1,1.4,8.1,2.8c2.1,1.6,3.2,3.9,3.2,7
			c0,4.2-2.2,7.6-6.7,10.1c-4.2,2.3-9.9,3.5-17,3.5c-6.1,0-11.1-0.7-15.6-3.4c-3.3-2.1-4-6.1-3.3-9c0.6-3-0.4-6.1-3.9-6.6
			c-1.9-0.3-4.2,0.7-5.4,2.4c-1,1.6-1.4,3.5-1.4,5.7c0,7.5,5.8,11,10.1,12.3c6.7,2.1,11.2,2.5,17.4,2.5c8.2,0,14.9-1.3,19.6-3.7
			c4.8-2.4,8.1-5.3,9.9-8.7c1.9-3.4,2.8-6.9,2.8-10.2c0-4.5-1-8.2-2.9-10.9c-6.2-8.5-15.1-7.5-35-8.4c-9.6,0-11.4-1.7-11.4-4.7
			c0-4.3,3.5-6,17.4-8.1c13.6-2.1,26.3-7.1,26.3-23.8c0-4.8-1.1-8.9-2.5-11.8c2.8,0.7,5.4,0.7,7.8-0.2c2.8-0.9,4.5-2.2,5.6-4.2
			c1-1.9,1.4-4.2,1-6C465.8,316.7,463,316,459.6,317 M428.8,362.9c-8.1,0-12.8-3-12.8-19.5c0-11.7,4.1-20.4,12.8-20.4
			c10.2,0,13.2,7.9,13.2,20.1C441.9,360.5,436.4,362.9,428.8,362.9"/>
	</g>
</g>
</svg>
